<?xml version="1.0" encoding="UTF-8" standalone="no"?>
<!DOCTYPE svg PUBLIC "-//W3C//DTD SVG 1.1//EN"
 "http://www.w3.org/Graphics/SVG/1.1/DTD/svg11.dtd">
<!-- Generated by graphviz version 14.1.4 (20260321.0153)
 -->
<!-- Pages: 1 -->
<svg width="1805pt" height="554.00pt"
 viewBox="0.00 0.00 1805.00 554.00" xmlns="http://www.w3.org/2000/svg" xmlns:xlink="http://www.w3.org/1999/xlink">
<g id="graph0" class="graph" transform="scale(1 1) rotate(0) translate(4 472)">
<!-- thm:youngIntegral&#45;eq&#45;integral&#45;stieltjes&#45;of&#45;monotone -->
<g id="node1" class="node">
<title>thm:youngIntegral&#45;eq&#45;integral&#45;stieltjes&#45;of&#45;monotone</title>
<ellipse fill="#f4cccc" stroke="black" stroke-width="1.8" cx="1228.41" cy="-18" rx="195.68" ry="18"/>
<text xml:space="preserve" text-anchor="middle" x="1228.41" y="-12.95" font-family="Times,serif" font-size="14.00">youngIntegral_eq_integral_stieltjes_of_monotone</text>
</g>
<!-- def:Partition&#45;Refines -->
<g id="node2" class="node">
<title>def:Partition&#45;Refines</title>
<path fill="#d9ead3" stroke="black" stroke-width="1.8" d="M507.16,-324C507.16,-324 423.66,-324 423.66,-324 417.66,-324 411.66,-318 411.66,-312 411.66,-312 411.66,-300 411.66,-300 411.66,-294 417.66,-288 423.66,-288 423.66,-288 507.16,-288 507.16,-288 513.16,-288 519.16,-294 519.16,-300 519.16,-300 519.16,-312 519.16,-312 519.16,-318 513.16,-324 507.16,-324"/>
<text xml:space="preserve" text-anchor="middle" x="465.41" y="-300.95" font-family="Times,serif" font-size="14.00">Partition.Refines</text>
</g>
<!-- thm:Partition&#45;abs&#45;rsSum&#45;sub&#45;le&#45;of&#45;refines -->
<g id="node3" class="node">
<title>thm:Partition&#45;abs&#45;rsSum&#45;sub&#45;le&#45;of&#45;refines</title>
<ellipse fill="#f4cccc" stroke="black" stroke-width="1.8" cx="667.41" cy="-234" rx="156.78" ry="18"/>
<text xml:space="preserve" text-anchor="middle" x="667.41" y="-228.95" font-family="Times,serif" font-size="14.00">Partition.abs_rsSum_sub_le_of_refines</text>
</g>
<!-- def:Partition&#45;Refines&#45;&gt;thm:Partition&#45;abs&#45;rsSum&#45;sub&#45;le&#45;of&#45;refines -->
<g id="edge1" class="edge">
<title>def:Partition&#45;Refines&#45;&gt;thm:Partition&#45;abs&#45;rsSum&#45;sub&#45;le&#45;of&#45;refines</title>
<path fill="none" stroke="black" d="M516.91,-287.15C544.81,-277.49 579.41,-265.5 608.39,-255.45"/>
<polygon fill="black" stroke="black" points="617.64,-252.25 609.67,-259.77 614.07,-253.49 608.19,-255.52 608.19,-255.52 608.19,-255.52 614.07,-253.49 606.72,-251.27 617.64,-252.25"/>
</g>
<!-- thm:exists&#45;tendsto&#45;rsSum&#45;of&#45;vanishing&#45;mesh -->
<g id="node4" class="node">
<title>thm:exists&#45;tendsto&#45;rsSum&#45;of&#45;vanishing&#45;mesh</title>
<ellipse fill="#f4cccc" stroke="black" stroke-width="1.8" cx="1321.41" cy="-162" rx="169.07" ry="18"/>
<text xml:space="preserve" text-anchor="middle" x="1321.41" y="-156.95" font-family="Times,serif" font-size="14.00">exists_tendsto_rsSum_of_vanishing_mesh</text>
</g>
<!-- thm:Partition&#45;abs&#45;rsSum&#45;sub&#45;le&#45;of&#45;refines&#45;&gt;thm:exists&#45;tendsto&#45;rsSum&#45;of&#45;vanishing&#45;mesh -->
<g id="edge2" class="edge">
<title>thm:Partition&#45;abs&#45;rsSum&#45;sub&#45;le&#45;of&#45;refines&#45;&gt;thm:exists&#45;tendsto&#45;rsSum&#45;of&#45;vanishing&#45;mesh</title>
<path fill="none" stroke="black" d="M780.59,-220.89C895.27,-208.61 1072.45,-189.65 1192.49,-176.8"/>
<polygon fill="black" stroke="black" points="1202.35,-175.74 1192.89,-181.28 1198.59,-176.15 1192.41,-176.81 1192.41,-176.81 1192.41,-176.81 1198.59,-176.15 1191.93,-172.33 1202.35,-175.74"/>
</g>
<!-- def:youngIntegral -->
<g id="node5" class="node">
<title>def:youngIntegral</title>
<path fill="#d9ead3" stroke="black" stroke-width="1.8" d="M1262.29,-108C1262.29,-108 1194.54,-108 1194.54,-108 1188.54,-108 1182.54,-102 1182.54,-96 1182.54,-96 1182.54,-84 1182.54,-84 1182.54,-78 1188.54,-72 1194.54,-72 1194.54,-72 1262.29,-72 1262.29,-72 1268.29,-72 1274.29,-78 1274.29,-84 1274.29,-84 1274.29,-96 1274.29,-96 1274.29,-102 1268.29,-108 1262.29,-108"/>
<text xml:space="preserve" text-anchor="middle" x="1228.41" y="-84.95" font-family="Times,serif" font-size="14.00">youngIntegral</text>
</g>
<!-- thm:exists&#45;tendsto&#45;rsSum&#45;of&#45;vanishing&#45;mesh&#45;&gt;def:youngIntegral -->
<g id="edge3" class="edge">
<title>thm:exists&#45;tendsto&#45;rsSum&#45;of&#45;vanishing&#45;mesh&#45;&gt;def:youngIntegral</title>
<path fill="none" stroke="black" d="M1297.95,-143.34C1286.6,-134.8 1272.81,-124.42 1260.51,-115.16"/>
<polygon fill="black" stroke="black" points="1252.85,-109.39 1263.54,-111.81 1255.87,-111.67 1260.84,-115.4 1260.84,-115.4 1260.84,-115.4 1255.87,-111.67 1258.13,-119 1252.85,-109.39"/>
</g>
<!-- thm:tendsto&#45;rsSum&#45;of&#45;vanishing&#45;mesh&#45;unique -->
<g id="node6" class="node">
<title>thm:tendsto&#45;rsSum&#45;of&#45;vanishing&#45;mesh&#45;unique</title>
<ellipse fill="#f4cccc" stroke="black" stroke-width="1.8" cx="1465.41" cy="-90" rx="173.16" ry="18"/>
<text xml:space="preserve" text-anchor="middle" x="1465.41" y="-84.95" font-family="Times,serif" font-size="14.00">tendsto_rsSum_of_vanishing_mesh_unique</text>
</g>
<!-- thm:exists&#45;tendsto&#45;rsSum&#45;of&#45;vanishing&#45;mesh&#45;&gt;thm:tendsto&#45;rsSum&#45;of&#45;vanishing&#45;mesh&#45;unique -->
<g id="edge4" class="edge">
<title>thm:exists&#45;tendsto&#45;rsSum&#45;of&#45;vanishing&#45;mesh&#45;&gt;thm:tendsto&#45;rsSum&#45;of&#45;vanishing&#45;mesh&#45;unique</title>
<path fill="none" stroke="black" d="M1357.01,-143.7C1375.96,-134.48 1399.48,-123.05 1419.76,-113.19"/>
<polygon fill="black" stroke="black" points="1428.63,-108.88 1421.61,-117.3 1425.23,-110.53 1419.64,-113.25 1419.64,-113.25 1419.64,-113.25 1425.23,-110.53 1417.67,-109.2 1428.63,-108.88"/>
</g>
<!-- def:youngIntegral&#45;&gt;thm:youngIntegral&#45;eq&#45;integral&#45;stieltjes&#45;of&#45;monotone -->
<g id="edge5" class="edge">
<title>def:youngIntegral&#45;&gt;thm:youngIntegral&#45;eq&#45;integral&#45;stieltjes&#45;of&#45;monotone</title>
<path fill="none" stroke="black" d="M1228.41,-71.34C1228.41,-64.07 1228.41,-55.47 1228.41,-47.36"/>
<polygon fill="black" stroke="black" points="1228.41,-37.63 1232.91,-47.63 1228.41,-41.42 1228.41,-47.63 1228.41,-47.63 1228.41,-47.63 1228.41,-41.42 1223.91,-47.63 1228.41,-37.63"/>
</g>
<!-- thm:youngIntegral&#45;integration&#45;by&#45;parts -->
<g id="node7" class="node">
<title>thm:youngIntegral&#45;integration&#45;by&#45;parts</title>
<ellipse fill="#f4cccc" stroke="black" stroke-width="1.8" cx="1625.41" cy="-18" rx="143.48" ry="18"/>
<text xml:space="preserve" text-anchor="middle" x="1625.41" y="-12.95" font-family="Times,serif" font-size="14.00">youngIntegral_integration_by_parts</text>
</g>
<!-- def:youngIntegral&#45;&gt;thm:youngIntegral&#45;integration&#45;by&#45;parts -->
<g id="edge6" class="edge">
<title>def:youngIntegral&#45;&gt;thm:youngIntegral&#45;integration&#45;by&#45;parts</title>
<path fill="none" stroke="black" d="M1275.1,-74.06C1277.9,-73.32 1280.69,-72.63 1283.41,-72 1358.28,-54.73 1443.69,-41.48 1510.43,-32.56"/>
<polygon fill="black" stroke="black" points="1520.19,-31.27 1510.87,-37.04 1516.44,-31.76 1510.28,-32.58 1510.28,-32.58 1510.28,-32.58 1516.44,-31.76 1509.69,-28.12 1520.19,-31.27"/>
</g>
<!-- thm:tendsto&#45;rsSum&#45;of&#45;vanishing&#45;mesh&#45;unique&#45;&gt;thm:youngIntegral&#45;integration&#45;by&#45;parts -->
<g id="edge7" class="edge">
<title>thm:tendsto&#45;rsSum&#45;of&#45;vanishing&#45;mesh&#45;unique&#45;&gt;thm:youngIntegral&#45;integration&#45;by&#45;parts</title>
<path fill="none" stroke="black" d="M1504.96,-71.7C1526.47,-62.29 1553.27,-50.56 1576.13,-40.56"/>
<polygon fill="black" stroke="black" points="1585.2,-36.59 1577.84,-44.72 1581.74,-38.11 1576.04,-40.6 1576.04,-40.6 1576.04,-40.6 1581.74,-38.11 1574.24,-36.48 1585.2,-36.59"/>
</g>
<!-- def:Partition&#45;restrict -->
<g id="node8" class="node">
<title>def:Partition&#45;restrict</title>
<path fill="#d9ead3" stroke="black" stroke-width="1.8" d="M1643.29,-396C1643.29,-396 1563.54,-396 1563.54,-396 1557.54,-396 1551.54,-390 1551.54,-384 1551.54,-384 1551.54,-372 1551.54,-372 1551.54,-366 1557.54,-360 1563.54,-360 1563.54,-360 1643.29,-360 1643.29,-360 1649.29,-360 1655.29,-366 1655.29,-372 1655.29,-372 1655.29,-384 1655.29,-384 1655.29,-390 1649.29,-396 1643.29,-396"/>
<text xml:space="preserve" text-anchor="middle" x="1603.41" y="-372.95" font-family="Times,serif" font-size="14.00">Partition.restrict</text>
</g>
<!-- thm:Partition&#45;abs&#45;rsSum&#45;sub&#45;le&#45;common&#45;refinement -->
<g id="node9" class="node">
<title>thm:Partition&#45;abs&#45;rsSum&#45;sub&#45;le&#45;common&#45;refinement</title>
<ellipse fill="#f4cccc" stroke="black" stroke-width="1.8" cx="1095.41" cy="-306" rx="197.73" ry="18"/>
<text xml:space="preserve" text-anchor="middle" x="1095.41" y="-300.95" font-family="Times,serif" font-size="14.00">Partition.abs_rsSum_sub_le_common_refinement</text>
</g>
<!-- def:IsSuperadditiveOn -->
<g id="node10" class="node">
<title>def:IsSuperadditiveOn</title>
<path fill="#d9ead3" stroke="black" stroke-width="1.8" d="M320.04,-468C320.04,-468 226.79,-468 226.79,-468 220.79,-468 214.79,-462 214.79,-456 214.79,-456 214.79,-444 214.79,-444 214.79,-438 220.79,-432 226.79,-432 226.79,-432 320.04,-432 320.04,-432 326.04,-432 332.04,-438 332.04,-444 332.04,-444 332.04,-456 332.04,-456 332.04,-462 326.04,-468 320.04,-468"/>
<text xml:space="preserve" text-anchor="middle" x="273.41" y="-444.95" font-family="Times,serif" font-size="14.00">IsSuperadditiveOn</text>
</g>
<!-- def:IsControlOn -->
<g id="node11" class="node">
<title>def:IsControlOn</title>
<path fill="#d9ead3" stroke="black" stroke-width="1.8" d="M414.16,-396C414.16,-396 354.66,-396 354.66,-396 348.66,-396 342.66,-390 342.66,-384 342.66,-384 342.66,-372 342.66,-372 342.66,-366 348.66,-360 354.66,-360 354.66,-360 414.16,-360 414.16,-360 420.16,-360 426.16,-366 426.16,-372 426.16,-372 426.16,-384 426.16,-384 426.16,-390 420.16,-396 414.16,-396"/>
<text xml:space="preserve" text-anchor="middle" x="384.41" y="-372.95" font-family="Times,serif" font-size="14.00">IsControlOn</text>
</g>
<!-- def:IsSuperadditiveOn&#45;&gt;def:IsControlOn -->
<g id="edge8" class="edge">
<title>def:IsSuperadditiveOn&#45;&gt;def:IsControlOn</title>
<path fill="none" stroke="black" d="M301.71,-431.15C315.41,-422.52 332.05,-412.02 346.8,-402.72"/>
<polygon fill="black" stroke="black" points="355.14,-397.46 349.08,-406.6 351.94,-399.48 346.68,-402.8 346.68,-402.8 346.68,-402.8 351.94,-399.48 344.28,-398.99 355.14,-397.46"/>
</g>
<!-- thm:not&#45;isSuperadditiveOn&#45;of&#45;forall&#45;lt&#45;skip -->
<g id="node12" class="node">
<title>thm:not&#45;isSuperadditiveOn&#45;of&#45;forall&#45;lt&#45;skip</title>
<ellipse fill="#f4cccc" stroke="black" stroke-width="1.8" cx="162.41" cy="-378" rx="162.41" ry="18"/>
<text xml:space="preserve" text-anchor="middle" x="162.41" y="-372.95" font-family="Times,serif" font-size="14.00">not_isSuperadditiveOn_of_forall_lt_skip</text>
</g>
<!-- def:IsSuperadditiveOn&#45;&gt;thm:not&#45;isSuperadditiveOn&#45;of&#45;forall&#45;lt&#45;skip -->
<g id="edge9" class="edge">
<title>def:IsSuperadditiveOn&#45;&gt;thm:not&#45;isSuperadditiveOn&#45;of&#45;forall&#45;lt&#45;skip</title>
<path fill="none" stroke="black" d="M245.12,-431.15C231.31,-422.45 214.52,-411.86 199.69,-402.51"/>
<polygon fill="black" stroke="black" points="191.31,-397.22 202.16,-398.75 194.5,-399.24 199.76,-402.55 199.76,-402.55 199.76,-402.55 194.5,-399.24 197.36,-406.36 191.31,-397.22"/>
</g>
<!-- thm:Partition&#45;young&#45;loeve&#45;bound -->
<g id="node13" class="node">
<title>thm:Partition&#45;young&#45;loeve&#45;bound</title>
<ellipse fill="#f4cccc" stroke="black" stroke-width="1.8" cx="667.41" cy="-306" rx="120.45" ry="18"/>
<text xml:space="preserve" text-anchor="middle" x="667.41" y="-300.95" font-family="Times,serif" font-size="14.00">Partition.young_loeve_bound</text>
</g>
<!-- def:IsControlOn&#45;&gt;thm:Partition&#45;young&#45;loeve&#45;bound -->
<g id="edge10" class="edge">
<title>def:IsControlOn&#45;&gt;thm:Partition&#45;young&#45;loeve&#45;bound</title>
<path fill="none" stroke="black" d="M426.78,-366.52C471.21,-355.53 541.85,-338.06 595.12,-324.88"/>
<polygon fill="black" stroke="black" points="604.69,-322.52 596.06,-329.28 601.02,-323.42 594.98,-324.92 594.98,-324.92 594.98,-324.92 601.02,-323.42 593.9,-320.55 604.69,-322.52"/>
</g>
<!-- thm:not&#45;isSuperadditiveOn&#45;of&#45;forall&#45;lt&#45;skip&#45;&gt;thm:Partition&#45;young&#45;loeve&#45;bound -->
<g id="edge11" class="edge">
<title>thm:not&#45;isSuperadditiveOn&#45;of&#45;forall&#45;lt&#45;skip&#45;&gt;thm:Partition&#45;young&#45;loeve&#45;bound</title>
<path fill="none" stroke="black" d="M262.49,-363.13C351.51,-350.79 480.92,-332.85 569.33,-320.6"/>
<polygon fill="black" stroke="black" points="578.97,-319.26 569.68,-325.09 575.22,-319.78 569.06,-320.63 569.06,-320.63 569.06,-320.63 575.22,-319.78 568.45,-316.18 578.97,-319.26"/>
</g>
<!-- thm:Partition&#45;young&#45;loeve&#45;bound&#45;&gt;thm:Partition&#45;abs&#45;rsSum&#45;sub&#45;le&#45;of&#45;refines -->
<g id="edge12" class="edge">
<title>thm:Partition&#45;young&#45;loeve&#45;bound&#45;&gt;thm:Partition&#45;abs&#45;rsSum&#45;sub&#45;le&#45;of&#45;refines</title>
<path fill="none" stroke="black" d="M667.41,-287.34C667.41,-280.07 667.41,-271.47 667.41,-263.36"/>
<polygon fill="black" stroke="black" points="667.41,-253.63 671.91,-263.63 667.41,-257.42 667.41,-263.63 667.41,-263.63 667.41,-263.63 667.41,-257.42 662.91,-263.63 667.41,-253.63"/>
</g>
<!-- str:Partition -->
<g id="node14" class="node">
<title>str:Partition</title>
<path fill="#e8f0ff" stroke="black" stroke-width="1.8" d="M1466.66,-468C1466.66,-468 1428.16,-468 1428.16,-468 1422.16,-468 1416.16,-462 1416.16,-456 1416.16,-456 1416.16,-444 1416.16,-444 1416.16,-438 1422.16,-432 1428.16,-432 1428.16,-432 1466.66,-432 1466.66,-432 1472.66,-432 1478.66,-438 1478.66,-444 1478.66,-444 1478.66,-456 1478.66,-456 1478.66,-462 1472.66,-468 1466.66,-468"/>
<text xml:space="preserve" text-anchor="middle" x="1447.41" y="-444.95" font-family="Times,serif" font-size="14.00">Partition</text>
</g>
<!-- str:Partition&#45;&gt;def:Partition&#45;Refines -->
<g id="edge13" class="edge">
<title>str:Partition&#45;&gt;def:Partition&#45;Refines</title>
<path fill="none" stroke="black" d="M1415.45,-448.42C1251.15,-445.32 508.08,-429.47 473.41,-396 457.65,-380.78 456.84,-355.25 459.29,-335.43"/>
<polygon fill="black" stroke="black" points="460.83,-325.74 463.71,-336.33 460.24,-329.48 459.26,-335.62 459.26,-335.62 459.26,-335.62 460.24,-329.48 454.82,-334.92 460.83,-325.74"/>
</g>
<!-- str:Partition&#45;&gt;def:Partition&#45;restrict -->
<g id="edge14" class="edge">
<title>str:Partition&#45;&gt;def:Partition&#45;restrict</title>
<path fill="none" stroke="black" d="M1479.36,-434.67C1500.73,-425.08 1529.29,-412.26 1553.62,-401.34"/>
<polygon fill="black" stroke="black" points="1562.64,-397.3 1555.36,-405.5 1559.19,-398.84 1553.52,-401.39 1553.52,-401.39 1553.52,-401.39 1559.19,-398.84 1551.67,-397.28 1562.64,-397.3"/>
</g>
<!-- def:Partition&#45;common&#45;refinement -->
<g id="node15" class="node">
<title>def:Partition&#45;common&#45;refinement</title>
<path fill="#d9ead3" stroke="black" stroke-width="1.8" d="M1369.91,-396C1369.91,-396 1212.91,-396 1212.91,-396 1206.91,-396 1200.91,-390 1200.91,-384 1200.91,-384 1200.91,-372 1200.91,-372 1200.91,-366 1206.91,-360 1212.91,-360 1212.91,-360 1369.91,-360 1369.91,-360 1375.91,-360 1381.91,-366 1381.91,-372 1381.91,-372 1381.91,-384 1381.91,-384 1381.91,-390 1375.91,-396 1369.91,-396"/>
<text xml:space="preserve" text-anchor="middle" x="1291.41" y="-372.95" font-family="Times,serif" font-size="14.00">Partition.common_refinement</text>
</g>
<!-- str:Partition&#45;&gt;def:Partition&#45;common&#45;refinement -->
<g id="edge15" class="edge">
<title>str:Partition&#45;&gt;def:Partition&#45;common&#45;refinement</title>
<path fill="none" stroke="black" d="M1415.47,-434.67C1394.1,-425.08 1365.54,-412.26 1341.21,-401.34"/>
<polygon fill="black" stroke="black" points="1332.19,-397.3 1343.15,-397.28 1335.64,-398.84 1341.31,-401.39 1341.31,-401.39 1341.31,-401.39 1335.64,-398.84 1339.47,-405.5 1332.19,-397.3"/>
</g>
<!-- def:Partition&#45;rsSum -->
<g id="node16" class="node">
<title>def:Partition&#45;rsSum</title>
<path fill="#d9ead3" stroke="black" stroke-width="1.8" d="M1171.16,-396C1171.16,-396 1093.66,-396 1093.66,-396 1087.66,-396 1081.66,-390 1081.66,-384 1081.66,-384 1081.66,-372 1081.66,-372 1081.66,-366 1087.66,-360 1093.66,-360 1093.66,-360 1171.16,-360 1171.16,-360 1177.16,-360 1183.16,-366 1183.16,-372 1183.16,-372 1183.16,-384 1183.16,-384 1183.16,-390 1177.16,-396 1171.16,-396"/>
<text xml:space="preserve" text-anchor="middle" x="1132.41" y="-372.95" font-family="Times,serif" font-size="14.00">Partition.rsSum</text>
</g>
<!-- str:Partition&#45;&gt;def:Partition&#45;rsSum -->
<g id="edge16" class="edge">
<title>str:Partition&#45;&gt;def:Partition&#45;rsSum</title>
<path fill="none" stroke="black" d="M1415.31,-443.17C1368.64,-434.52 1279.12,-417.26 1194.64,-396.72"/>
<polygon fill="black" stroke="black" points="1185.02,-394.36 1195.8,-392.37 1188.69,-395.26 1194.73,-396.74 1194.73,-396.74 1194.73,-396.74 1188.69,-395.26 1193.66,-401.11 1185.02,-394.36"/>
</g>
<!-- def:Partition&#45;mesh -->
<g id="node17" class="node">
<title>def:Partition&#45;mesh</title>
<path fill="#d9ead3" stroke="black" stroke-width="1.8" d="M1483.16,-396C1483.16,-396 1411.66,-396 1411.66,-396 1405.66,-396 1399.66,-390 1399.66,-384 1399.66,-384 1399.66,-372 1399.66,-372 1399.66,-366 1405.66,-360 1411.66,-360 1411.66,-360 1483.16,-360 1483.16,-360 1489.16,-360 1495.16,-366 1495.16,-372 1495.16,-372 1495.16,-384 1495.16,-384 1495.16,-390 1489.16,-396 1483.16,-396"/>
<text xml:space="preserve" text-anchor="middle" x="1447.41" y="-372.95" font-family="Times,serif" font-size="14.00">Partition.mesh</text>
</g>
<!-- str:Partition&#45;&gt;def:Partition&#45;mesh -->
<g id="edge17" class="edge">
<title>str:Partition&#45;&gt;def:Partition&#45;mesh</title>
<path fill="none" stroke="black" d="M1447.41,-431.34C1447.41,-424.07 1447.41,-415.47 1447.41,-407.36"/>
<polygon fill="black" stroke="black" points="1447.41,-397.63 1451.91,-407.63 1447.41,-401.42 1447.41,-407.63 1447.41,-407.63 1447.41,-407.63 1447.41,-401.42 1442.91,-407.63 1447.41,-397.63"/>
</g>
<!-- def:Partition&#45;crossTermFin -->
<g id="node18" class="node">
<title>def:Partition&#45;crossTermFin</title>
<path fill="#d9ead3" stroke="black" stroke-width="1.8" d="M1694.41,-252C1694.41,-252 1576.41,-252 1576.41,-252 1570.41,-252 1564.41,-246 1564.41,-240 1564.41,-240 1564.41,-228 1564.41,-228 1564.41,-222 1570.41,-216 1576.41,-216 1576.41,-216 1694.41,-216 1694.41,-216 1700.41,-216 1706.41,-222 1706.41,-228 1706.41,-228 1706.41,-240 1706.41,-240 1706.41,-246 1700.41,-252 1694.41,-252"/>
<text xml:space="preserve" text-anchor="middle" x="1635.41" y="-228.95" font-family="Times,serif" font-size="14.00">Partition.crossTermFin</text>
</g>
<!-- str:Partition&#45;&gt;def:Partition&#45;crossTermFin -->
<g id="edge18" class="edge">
<title>str:Partition&#45;&gt;def:Partition&#45;crossTermFin</title>
<path fill="none" stroke="black" d="M1467.85,-431.26C1479.01,-421.26 1492.87,-408.33 1504.41,-396 1546.55,-350.98 1590.88,-294.22 1615.65,-261.52"/>
<polygon fill="black" stroke="black" points="1621.66,-253.55 1619.24,-264.24 1619.39,-256.57 1615.64,-261.53 1615.64,-261.53 1615.64,-261.53 1619.39,-256.57 1612.05,-258.83 1621.66,-253.55"/>
</g>
<!-- def:Partition&#45;crossTerm -->
<g id="node19" class="node">
<title>def:Partition&#45;crossTerm</title>
<path fill="#d9ead3" stroke="black" stroke-width="1.8" d="M1785.41,-396C1785.41,-396 1685.41,-396 1685.41,-396 1679.41,-396 1673.41,-390 1673.41,-384 1673.41,-384 1673.41,-372 1673.41,-372 1673.41,-366 1679.41,-360 1685.41,-360 1685.41,-360 1785.41,-360 1785.41,-360 1791.41,-360 1797.41,-366 1797.41,-372 1797.41,-372 1797.41,-384 1797.41,-384 1797.41,-390 1791.41,-396 1785.41,-396"/>
<text xml:space="preserve" text-anchor="middle" x="1735.41" y="-372.95" font-family="Times,serif" font-size="14.00">Partition.crossTerm</text>
</g>
<!-- str:Partition&#45;&gt;def:Partition&#45;crossTerm -->
<g id="edge19" class="edge">
<title>str:Partition&#45;&gt;def:Partition&#45;crossTerm</title>
<path fill="none" stroke="black" d="M1479.34,-441.24C1523.11,-430.6 1603.05,-411.17 1662.01,-396.84"/>
<polygon fill="black" stroke="black" points="1671.57,-394.52 1662.92,-401.25 1667.9,-395.41 1661.86,-396.88 1661.86,-396.88 1661.86,-396.88 1667.9,-395.41 1660.79,-392.51 1671.57,-394.52"/>
</g>
<!-- def:Partition&#45;common&#45;refinement&#45;&gt;thm:exists&#45;tendsto&#45;rsSum&#45;of&#45;vanishing&#45;mesh -->
<g id="edge20" class="edge">
<title>def:Partition&#45;common&#45;refinement&#45;&gt;thm:exists&#45;tendsto&#45;rsSum&#45;of&#45;vanishing&#45;mesh</title>
<path fill="none" stroke="black" d="M1295.47,-359.4C1297.73,-349.12 1300.48,-335.87 1302.41,-324 1309.93,-277.73 1315.71,-223.52 1318.83,-191.29"/>
<polygon fill="black" stroke="black" points="1319.74,-181.67 1323.28,-192.05 1319.38,-185.44 1318.8,-191.63 1318.8,-191.63 1318.8,-191.63 1319.38,-185.44 1314.32,-191.2 1319.74,-181.67"/>
</g>
<!-- def:Partition&#45;common&#45;refinement&#45;&gt;thm:Partition&#45;abs&#45;rsSum&#45;sub&#45;le&#45;common&#45;refinement -->
<g id="edge21" class="edge">
<title>def:Partition&#45;common&#45;refinement&#45;&gt;thm:Partition&#45;abs&#45;rsSum&#45;sub&#45;le&#45;common&#45;refinement</title>
<path fill="none" stroke="black" d="M1241.45,-359.15C1214.8,-349.64 1181.85,-337.87 1154,-327.92"/>
<polygon fill="black" stroke="black" points="1144.74,-324.62 1155.68,-323.74 1148.31,-325.89 1154.16,-327.98 1154.16,-327.98 1154.16,-327.98 1148.31,-325.89 1152.65,-332.22 1144.74,-324.62"/>
</g>
<!-- def:Partition&#45;rsSum&#45;&gt;thm:Partition&#45;abs&#45;rsSum&#45;sub&#45;le&#45;common&#45;refinement -->
<g id="edge22" class="edge">
<title>def:Partition&#45;rsSum&#45;&gt;thm:Partition&#45;abs&#45;rsSum&#45;sub&#45;le&#45;common&#45;refinement</title>
<path fill="none" stroke="black" d="M1123.08,-359.34C1119.06,-351.73 1114.27,-342.67 1109.81,-334.24"/>
<polygon fill="black" stroke="black" points="1105.19,-325.49 1113.84,-332.23 1106.96,-328.84 1109.86,-334.33 1109.86,-334.33 1109.86,-334.33 1106.96,-328.84 1105.88,-336.44 1105.19,-325.49"/>
</g>
<!-- def:Partition&#45;rsSum&#45;&gt;thm:Partition&#45;young&#45;loeve&#45;bound -->
<g id="edge23" class="edge">
<title>def:Partition&#45;rsSum&#45;&gt;thm:Partition&#45;young&#45;loeve&#45;bound</title>
<path fill="none" stroke="black" d="M1081.04,-361.7C1078.47,-361.09 1075.92,-360.52 1073.41,-360 975.61,-339.65 862.83,-325.67 780.99,-317.2"/>
<polygon fill="black" stroke="black" points="771.12,-316.19 781.53,-312.73 774.88,-316.57 781.07,-317.21 781.07,-317.21 781.07,-317.21 774.88,-316.57 780.61,-321.68 771.12,-316.19"/>
</g>
<!-- def:Partition&#45;HasVanishingMeshSize -->
<g id="node20" class="node">
<title>def:Partition&#45;HasVanishingMeshSize</title>
<path fill="#d9ead3" stroke="black" stroke-width="1.8" d="M1533.04,-252C1533.04,-252 1361.79,-252 1361.79,-252 1355.79,-252 1349.79,-246 1349.79,-240 1349.79,-240 1349.79,-228 1349.79,-228 1349.79,-222 1355.79,-216 1361.79,-216 1361.79,-216 1533.04,-216 1533.04,-216 1539.04,-216 1545.04,-222 1545.04,-228 1545.04,-228 1545.04,-240 1545.04,-240 1545.04,-246 1539.04,-252 1533.04,-252"/>
<text xml:space="preserve" text-anchor="middle" x="1447.41" y="-228.95" font-family="Times,serif" font-size="14.00">Partition.HasVanishingMeshSize</text>
</g>
<!-- def:Partition&#45;mesh&#45;&gt;def:Partition&#45;HasVanishingMeshSize -->
<g id="edge24" class="edge">
<title>def:Partition&#45;mesh&#45;&gt;def:Partition&#45;HasVanishingMeshSize</title>
<path fill="none" stroke="black" d="M1447.41,-359.3C1447.41,-335.26 1447.41,-291.99 1447.41,-263.38"/>
<polygon fill="black" stroke="black" points="1447.41,-253.69 1451.91,-263.69 1447.41,-257.47 1447.41,-263.69 1447.41,-263.69 1447.41,-263.69 1447.41,-257.47 1442.91,-263.69 1447.41,-253.69"/>
</g>
<!-- def:Partition&#45;crossTermFin&#45;&gt;thm:youngIntegral&#45;integration&#45;by&#45;parts -->
<g id="edge25" class="edge">
<title>def:Partition&#45;crossTermFin&#45;&gt;thm:youngIntegral&#45;integration&#45;by&#45;parts</title>
<path fill="none" stroke="black" d="M1639.79,-215.42C1646.53,-185.62 1657.66,-123.4 1647.41,-72 1645.73,-63.54 1642.66,-54.73 1639.35,-46.79"/>
<polygon fill="black" stroke="black" points="1635.27,-37.71 1643.47,-44.99 1636.82,-41.16 1639.37,-46.83 1639.37,-46.83 1639.37,-46.83 1636.82,-41.16 1635.26,-48.67 1635.27,-37.71"/>
</g>
<!-- def:Partition&#45;crossTerm&#45;&gt;thm:youngIntegral&#45;integration&#45;by&#45;parts -->
<g id="edge26" class="edge">
<title>def:Partition&#45;crossTerm&#45;&gt;thm:youngIntegral&#45;integration&#45;by&#45;parts</title>
<path fill="none" stroke="black" d="M1735.21,-359.51C1734.92,-332.71 1734.41,-279.87 1734.41,-235 1734.41,-235 1734.41,-235 1734.41,-161 1734.41,-111.43 1692.1,-68.5 1660.2,-43.19"/>
<polygon fill="black" stroke="black" points="1652.49,-37.27 1663.16,-39.79 1655.49,-39.57 1660.42,-43.36 1660.42,-43.36 1660.42,-43.36 1655.49,-39.57 1657.68,-46.93 1652.49,-37.27"/>
</g>
<!-- def:Partition&#45;HasVanishingMeshSize&#45;&gt;thm:exists&#45;tendsto&#45;rsSum&#45;of&#45;vanishing&#45;mesh -->
<g id="edge27" class="edge">
<title>def:Partition&#45;HasVanishingMeshSize&#45;&gt;thm:exists&#45;tendsto&#45;rsSum&#45;of&#45;vanishing&#45;mesh</title>
<path fill="none" stroke="black" d="M1415.29,-215.15C1399.2,-206.22 1379.54,-195.29 1362.38,-185.76"/>
<polygon fill="black" stroke="black" points="1353.67,-180.92 1364.6,-181.84 1356.98,-182.76 1362.41,-185.78 1362.41,-185.78 1362.41,-185.78 1356.98,-182.76 1360.23,-189.71 1353.67,-180.92"/>
</g>
<!-- def:young&#45;control -->
<g id="node21" class="node">
<title>def:young&#45;control</title>
<path fill="#d9ead3" stroke="black" stroke-width="1.8" d="M564.79,-396C564.79,-396 494.04,-396 494.04,-396 488.04,-396 482.04,-390 482.04,-384 482.04,-384 482.04,-372 482.04,-372 482.04,-366 488.04,-360 494.04,-360 494.04,-360 564.79,-360 564.79,-360 570.79,-360 576.79,-366 576.79,-372 576.79,-372 576.79,-384 576.79,-384 576.79,-390 570.79,-396 564.79,-396"/>
<text xml:space="preserve" text-anchor="middle" x="529.41" y="-372.95" font-family="Times,serif" font-size="14.00">young_control</text>
</g>
<!-- def:young&#45;control&#45;&gt;thm:Partition&#45;young&#45;loeve&#45;bound -->
<g id="edge28" class="edge">
<title>def:young&#45;control&#45;&gt;thm:Partition&#45;young&#45;loeve&#45;bound</title>
<path fill="none" stroke="black" d="M564.59,-359.15C582.6,-350.02 604.69,-338.82 623.77,-329.14"/>
<polygon fill="black" stroke="black" points="632.64,-324.64 625.76,-333.18 629.27,-326.35 623.72,-329.16 623.72,-329.16 623.72,-329.16 629.27,-326.35 621.68,-325.15 632.64,-324.64"/>
</g>
<!-- def:Partition&#45;young&#45;loeve&#45;constant -->
<g id="node22" class="node">
<title>def:Partition&#45;young&#45;loeve&#45;constant</title>
<path fill="#d9ead3" stroke="black" stroke-width="1.8" d="M770.29,-396C770.29,-396 606.54,-396 606.54,-396 600.54,-396 594.54,-390 594.54,-384 594.54,-384 594.54,-372 594.54,-372 594.54,-366 600.54,-360 606.54,-360 606.54,-360 770.29,-360 770.29,-360 776.29,-360 782.29,-366 782.29,-372 782.29,-372 782.29,-384 782.29,-384 782.29,-390 776.29,-396 770.29,-396"/>
<text xml:space="preserve" text-anchor="middle" x="688.41" y="-372.95" font-family="Times,serif" font-size="14.00">Partition.young_loeve_constant</text>
</g>
<!-- def:Partition&#45;young&#45;loeve&#45;constant&#45;&gt;thm:Partition&#45;young&#45;loeve&#45;bound -->
<g id="edge29" class="edge">
<title>def:Partition&#45;young&#45;loeve&#45;constant&#45;&gt;thm:Partition&#45;young&#45;loeve&#45;bound</title>
<path fill="none" stroke="black" d="M683.11,-359.34C680.91,-351.98 678.29,-343.27 675.84,-335.08"/>
<polygon fill="black" stroke="black" points="672.99,-325.58 680.17,-333.87 674.08,-329.2 675.86,-335.16 675.86,-335.16 675.86,-335.16 674.08,-329.2 671.55,-336.45 672.99,-325.58"/>
</g>
<!-- def:rsSum&#45;cross -->
<g id="node23" class="node">
<title>def:rsSum&#45;cross</title>
<path fill="#d9ead3" stroke="black" stroke-width="1.8" d="M1766.29,-468C1766.29,-468 1704.54,-468 1704.54,-468 1698.54,-468 1692.54,-462 1692.54,-456 1692.54,-456 1692.54,-444 1692.54,-444 1692.54,-438 1698.54,-432 1704.54,-432 1704.54,-432 1766.29,-432 1766.29,-432 1772.29,-432 1778.29,-438 1778.29,-444 1778.29,-444 1778.29,-456 1778.29,-456 1778.29,-462 1772.29,-468 1766.29,-468"/>
<text xml:space="preserve" text-anchor="middle" x="1735.41" y="-444.95" font-family="Times,serif" font-size="14.00">rsSum_cross</text>
</g>
<!-- def:rsSum&#45;cross&#45;&gt;def:Partition&#45;crossTerm -->
<g id="edge30" class="edge">
<title>def:rsSum&#45;cross&#45;&gt;def:Partition&#45;crossTerm</title>
<path fill="none" stroke="black" d="M1735.41,-431.34C1735.41,-424.07 1735.41,-415.47 1735.41,-407.36"/>
<polygon fill="black" stroke="black" points="1735.41,-397.63 1739.91,-407.63 1735.41,-401.42 1735.41,-407.63 1735.41,-407.63 1735.41,-407.63 1735.41,-401.42 1730.91,-407.63 1735.41,-397.63"/>
</g>
<!-- thm:Partition&#45;rsSum&#45;go&#45;insert&#45;point -->
<g id="node24" class="node">
<title>thm:Partition&#45;rsSum&#45;go&#45;insert&#45;point</title>
<ellipse fill="#f4cccc" stroke="black" stroke-width="1.8" cx="932.41" cy="-378" rx="131.71" ry="18"/>
<text xml:space="preserve" text-anchor="middle" x="932.41" y="-372.95" font-family="Times,serif" font-size="14.00">Partition.rsSum_go_insert_point</text>
</g>
<!-- thm:Partition&#45;rsSum&#45;go&#45;insert&#45;point&#45;&gt;thm:Partition&#45;young&#45;loeve&#45;bound -->
<g id="edge31" class="edge">
<title>thm:Partition&#45;rsSum&#45;go&#45;insert&#45;point&#45;&gt;thm:Partition&#45;young&#45;loeve&#45;bound</title>
<path fill="none" stroke="black" d="M872.61,-361.2C832.31,-350.56 779.01,-336.48 736.83,-325.34"/>
<polygon fill="black" stroke="black" points="727.26,-322.81 738.08,-321.01 730.92,-323.78 736.93,-325.36 736.93,-325.36 736.93,-325.36 730.92,-323.78 735.78,-329.71 727.26,-322.81"/>
</g>
</g>
<g id="custom_legend"><g><rect x="20.00" y="506.00" width="92.00" height="28.00" rx="10" ry="10" fill="#d9ead3" stroke="black" stroke-width="1.8"/><text xml:space="preserve" text-anchor="middle" x="66.00" y="526.00" font-family="Times,serif" font-size="14.00">definition</text></g><g><rect x="130.00" y="506.00" width="86.00" height="28.00" rx="10" ry="10" fill="#e8f0ff" stroke="black" stroke-width="1.8"/><text xml:space="preserve" text-anchor="middle" x="173.00" y="526.00" font-family="Times,serif" font-size="14.00">structure</text></g><g><ellipse cx="292.00" cy="520.00" rx="58.00" ry="18.00" fill="#f4cccc" stroke="black" stroke-width="1.8"/><text xml:space="preserve" text-anchor="middle" x="292.00" y="526.00" font-family="Times,serif" font-size="14.00">theorem</text></g><text xml:space="preserve" text-anchor="start" x="372.00" y="526.00" font-family="Times,serif" font-size="14.00">dependency</text><line x1="460.00" y1="520.00" x2="544.00" y2="520.00" stroke="black" stroke-width="1.8"/><polygon fill="black" stroke="black" points="532.00,512.00 544.00,520.00 532.00,528.00 535.00,520.00"/></g></svg>
